<mxfile host="app.diagrams.net" agent="Mozilla/5.0 (X11; Linux x86_64) AppleWebKit/537.36 (KHTML, like Gecko) Chrome/132.0.0.0 YaBrowser/25.2.0.0 Safari/537.36" version="26.2.14">
  <diagram id="6a731a19-8d31-9384-78a2-239565b7b9f0" name="Page-1">
    <mxGraphModel dx="1312" dy="743" grid="1" gridSize="10" guides="1" tooltips="1" connect="1" arrows="1" fold="1" page="1" pageScale="1" pageWidth="1169" pageHeight="827" background="none" math="0" shadow="0">
      <root>
        <mxCell id="0" />
        <mxCell id="1" parent="0" />
        <mxCell id="1354" value="секретные данные" style="ellipse;whiteSpace=wrap;html=1;shadow=0;fontFamily=Helvetica;fontSize=20;fontColor=#FFFFFF;align=center;strokeWidth=3;fillColor=#736ca8;strokeColor=none;" parent="1" vertex="1">
          <mxGeometry x="1540" y="570" width="120" height="120" as="geometry" />
        </mxCell>
        <mxCell id="1355" value="конфиденциальные данные" style="ellipse;whiteSpace=wrap;html=1;shadow=0;fontFamily=Helvetica;fontSize=20;fontColor=#FFFFFF;align=center;strokeWidth=3;fillColor=#F08705;strokeColor=none;" parent="1" vertex="1">
          <mxGeometry x="1299.5" y="1050" width="209" height="209" as="geometry" />
        </mxCell>
        <mxCell id="1356" value="внутренние данные" style="ellipse;whiteSpace=wrap;html=1;shadow=0;fontFamily=Helvetica;fontSize=20;fontColor=#FFFFFF;align=center;strokeWidth=3;fillColor=#E85642;strokeColor=none;" parent="1" vertex="1">
          <mxGeometry x="585" y="790" width="120" height="120" as="geometry" />
        </mxCell>
        <mxCell id="1363" style="endArrow=none;strokeWidth=6;strokeColor=#736CA8;html=1;" parent="1" source="1515" target="1516" edge="1">
          <mxGeometry relative="1" as="geometry" />
        </mxCell>
        <mxCell id="1364" style="endArrow=none;strokeWidth=6;strokeColor=#736ca8;html=1;" parent="1" source="1515" target="1354" edge="1">
          <mxGeometry relative="1" as="geometry" />
        </mxCell>
        <mxCell id="1365" value="" style="edgeStyle=none;endArrow=none;strokeWidth=6;strokeColor=#F08705;html=1;" parent="1" source="1515" target="1355" edge="1">
          <mxGeometry x="181" y="226.5" width="100" height="100" as="geometry">
            <mxPoint x="181" y="326.5" as="sourcePoint" />
            <mxPoint x="281" y="226.5" as="targetPoint" />
          </mxGeometry>
        </mxCell>
        <mxCell id="1366" value="" style="edgeStyle=none;endArrow=none;strokeWidth=6;strokeColor=#E85642;html=1;" parent="1" source="1515" target="1356" edge="1">
          <mxGeometry x="181" y="226.5" width="100" height="100" as="geometry">
            <mxPoint x="181" y="326.5" as="sourcePoint" />
            <mxPoint x="281" y="226.5" as="targetPoint" />
          </mxGeometry>
        </mxCell>
        <mxCell id="1462" value="Финансовые данные" style="rounded=1;fillColor=#a29dc5;strokeColor=none;strokeWidth=3;shadow=0;html=1;fontColor=#FFFFFF;" parent="1" vertex="1">
          <mxGeometry x="1700" y="540" width="120" height="40" as="geometry" />
        </mxCell>
        <mxCell id="1466" value="" style="edgeStyle=none;endArrow=none;strokeWidth=3;strokeColor=#A29DC5;html=1;" parent="1" source="1354" target="1462" edge="1">
          <mxGeometry x="251" y="-103.5" width="100" height="100" as="geometry">
            <mxPoint x="251" y="-3.5" as="sourcePoint" />
            <mxPoint x="351" y="-103.5" as="targetPoint" />
          </mxGeometry>
        </mxCell>
        <mxCell id="1475" value="Данные аналитики&lt;div&gt;&amp;nbsp;и отчетов&lt;/div&gt;" style="rounded=1;fillColor=#f5af58;strokeColor=none;strokeWidth=3;shadow=0;html=1;fontColor=#FFFFFF;" parent="1" vertex="1">
          <mxGeometry x="1670" y="1134.5" width="120" height="40" as="geometry" />
        </mxCell>
        <mxCell id="1476" value="Данные о&lt;div&gt;собственниках&lt;/div&gt;" style="rounded=1;fillColor=#f5af58;strokeColor=none;strokeWidth=3;shadow=0;html=1;fontColor=#FFFFFF;" parent="1" vertex="1">
          <mxGeometry x="1634" y="1050" width="120" height="40" as="geometry" />
        </mxCell>
        <mxCell id="1477" value="Клиентские данные" style="rounded=1;fillColor=#f5af58;strokeColor=none;strokeWidth=3;shadow=0;html=1;fontColor=#FFFFFF;" parent="1" vertex="1">
          <mxGeometry x="1520" y="1190" width="120" height="40" as="geometry" />
        </mxCell>
        <mxCell id="1487" value="" style="edgeStyle=none;endArrow=none;strokeWidth=3;strokeColor=#F5AF58;html=1;" parent="1" source="1355" target="1475" edge="1">
          <mxGeometry x="243.5" y="39" width="100" height="100" as="geometry">
            <mxPoint x="333.5" y="549" as="sourcePoint" />
            <mxPoint x="433.5" y="449" as="targetPoint" />
          </mxGeometry>
        </mxCell>
        <mxCell id="1488" value="" style="edgeStyle=none;endArrow=none;strokeWidth=3;strokeColor=#F5AF58;html=1;" parent="1" source="1355" target="1476" edge="1">
          <mxGeometry x="243.5" y="39" width="100" height="100" as="geometry">
            <mxPoint x="333.5" y="549" as="sourcePoint" />
            <mxPoint x="433.5" y="449" as="targetPoint" />
          </mxGeometry>
        </mxCell>
        <mxCell id="1489" value="" style="edgeStyle=none;endArrow=none;strokeWidth=3;strokeColor=#F5AF58;html=1;" parent="1" source="1355" target="1477" edge="1">
          <mxGeometry x="243.5" y="39" width="100" height="100" as="geometry">
            <mxPoint x="333.5" y="549" as="sourcePoint" />
            <mxPoint x="433.5" y="449" as="targetPoint" />
          </mxGeometry>
        </mxCell>
        <mxCell id="1491" value="&lt;div&gt;История проведенных&lt;/div&gt;&lt;div&gt;работ&lt;/div&gt;" style="rounded=1;fillColor=#f08e81;strokeColor=none;strokeWidth=3;shadow=0;html=1;fontColor=#FFFFFF;" parent="1" vertex="1">
          <mxGeometry x="920" y="850" width="138.5" height="40" as="geometry" />
        </mxCell>
        <mxCell id="1492" value="Данные недвижимости" style="rounded=1;fillColor=#f08e81;strokeColor=none;strokeWidth=3;shadow=0;html=1;fontColor=#FFFFFF;" parent="1" vertex="1">
          <mxGeometry x="880" y="787" width="143.5" height="40" as="geometry" />
        </mxCell>
        <mxCell id="1493" value="Данные бронирования" style="rounded=1;fillColor=#f08e81;strokeColor=none;strokeWidth=3;shadow=0;html=1;fontColor=#FFFFFF;" parent="1" vertex="1">
          <mxGeometry x="800" y="910" width="138.5" height="40" as="geometry" />
        </mxCell>
        <mxCell id="1504" value="" style="edgeStyle=none;endArrow=none;strokeWidth=3;strokeColor=#F08E81;html=1;" parent="1" source="1356" target="1491" edge="1">
          <mxGeometry x="188.5" y="51.5" width="100" height="100" as="geometry">
            <mxPoint x="188.5" y="151.5" as="sourcePoint" />
            <mxPoint x="288.5" y="51.5" as="targetPoint" />
          </mxGeometry>
        </mxCell>
        <mxCell id="1505" value="" style="edgeStyle=none;endArrow=none;strokeWidth=3;strokeColor=#F08E81;html=1;" parent="1" source="1356" target="1492" edge="1">
          <mxGeometry x="188.5" y="51.5" width="100" height="100" as="geometry">
            <mxPoint x="188.5" y="151.5" as="sourcePoint" />
            <mxPoint x="288.5" y="51.5" as="targetPoint" />
          </mxGeometry>
        </mxCell>
        <mxCell id="1506" value="" style="edgeStyle=none;endArrow=none;strokeWidth=3;strokeColor=#F08E81;html=1;" parent="1" source="1356" target="1493" edge="1">
          <mxGeometry x="188.5" y="51.5" width="100" height="100" as="geometry">
            <mxPoint x="188.5" y="151.5" as="sourcePoint" />
            <mxPoint x="288.5" y="51.5" as="targetPoint" />
          </mxGeometry>
        </mxCell>
        <mxCell id="1515" value="Безопасность данных" style="ellipse;whiteSpace=wrap;html=1;shadow=0;fontFamily=Helvetica;fontSize=30;fontColor=#2F5B7C;align=center;strokeColor=#2F5B7C;strokeWidth=6;fillColor=#FFFFFF;fontStyle=1;gradientColor=none;" parent="1" vertex="1">
          <mxGeometry x="1169" y="110" width="270" height="270" as="geometry" />
        </mxCell>
        <mxCell id="1516" value="публичные данные" style="ellipse;whiteSpace=wrap;html=1;shadow=0;fontFamily=Helvetica;fontSize=20;fontColor=#FFFFFF;align=center;strokeWidth=3;fillColor=#736ca8;strokeColor=none;" parent="1" vertex="1">
          <mxGeometry x="830" y="340" width="120" height="120" as="geometry" />
        </mxCell>
        <mxCell id="1522" value="Данные о&amp;nbsp;&lt;div&gt;запланированных работах&lt;/div&gt;" style="rounded=1;fillColor=#a29dc5;strokeColor=none;strokeWidth=3;shadow=0;html=1;fontColor=#FFFFFF;" parent="1" vertex="1">
          <mxGeometry x="573" y="290" width="167" height="40" as="geometry" />
        </mxCell>
        <mxCell id="1534" value="" style="edgeStyle=none;endArrow=none;strokeWidth=3;strokeColor=#A29DC5;html=1;" parent="1" source="1516" target="1522" edge="1">
          <mxGeometry x="-1498" y="-303.5" width="100" height="100" as="geometry">
            <mxPoint x="-1498" y="-203.5" as="sourcePoint" />
            <mxPoint x="-1398" y="-303.5" as="targetPoint" />
          </mxGeometry>
        </mxCell>
        <mxCell id="ekEnLBvmO1qP7LXFrtnK-1545" value="Утечка данных&lt;br&gt;[критический]" style="ellipse;whiteSpace=wrap;html=1;gradientColor=none;fillColor=light-dark(#FFFFFF,#635F81);strokeColor=none;" vertex="1" parent="1">
          <mxGeometry x="1900" y="710" width="120" height="80" as="geometry" />
        </mxCell>
        <mxCell id="ekEnLBvmO1qP7LXFrtnK-1546" value="Потеря данных&lt;br&gt;[критический]" style="ellipse;whiteSpace=wrap;html=1;gradientColor=none;fillColor=light-dark(#FFFFFF,#635F81);strokeColor=none;" vertex="1" parent="1">
          <mxGeometry x="1781" y="800" width="120" height="80" as="geometry" />
        </mxCell>
        <mxCell id="ekEnLBvmO1qP7LXFrtnK-1548" value="" style="edgeStyle=none;endArrow=none;strokeWidth=3;strokeColor=#A29DC5;html=1;entryX=0.5;entryY=0;entryDx=0;entryDy=0;exitX=0.5;exitY=1;exitDx=0;exitDy=0;" edge="1" parent="1" source="1354" target="ekEnLBvmO1qP7LXFrtnK-1546">
          <mxGeometry x="251" y="-103.5" width="100" height="100" as="geometry">
            <mxPoint x="1593" y="679" as="sourcePoint" />
            <mxPoint x="1653" y="730" as="targetPoint" />
          </mxGeometry>
        </mxCell>
        <mxCell id="ekEnLBvmO1qP7LXFrtnK-1549" value="" style="edgeStyle=none;endArrow=none;strokeWidth=3;strokeColor=#A29DC5;html=1;entryX=0;entryY=0;entryDx=0;entryDy=0;exitX=1;exitY=1;exitDx=0;exitDy=0;" edge="1" parent="1" source="1354" target="ekEnLBvmO1qP7LXFrtnK-1545">
          <mxGeometry x="251" y="-103.5" width="100" height="100" as="geometry">
            <mxPoint x="1610" y="700" as="sourcePoint" />
            <mxPoint x="1600" y="920" as="targetPoint" />
          </mxGeometry>
        </mxCell>
        <mxCell id="ekEnLBvmO1qP7LXFrtnK-1551" value="Утечка данных&lt;br&gt;[критический]" style="ellipse;whiteSpace=wrap;html=1;gradientColor=none;fillColor=light-dark(#F08705,#BD6300);strokeColor=none;" vertex="1" parent="1">
          <mxGeometry x="1480" y="1340" width="120" height="80" as="geometry" />
        </mxCell>
        <mxCell id="ekEnLBvmO1qP7LXFrtnK-1552" value="Потеря данных&lt;br&gt;[значительный]" style="ellipse;whiteSpace=wrap;html=1;gradientColor=none;fillColor=light-dark(#F08705,#BD6300);strokeColor=none;" vertex="1" parent="1">
          <mxGeometry x="1330" y="1390" width="120" height="80" as="geometry" />
        </mxCell>
        <mxCell id="ekEnLBvmO1qP7LXFrtnK-1554" value="" style="edgeStyle=none;endArrow=none;strokeWidth=3;strokeColor=#F5AF58;html=1;exitX=0.647;exitY=0.981;exitDx=0;exitDy=0;exitPerimeter=0;entryX=0.5;entryY=0;entryDx=0;entryDy=0;" edge="1" parent="1" source="1355" target="ekEnLBvmO1qP7LXFrtnK-1551">
          <mxGeometry x="243.5" y="39" width="100" height="100" as="geometry">
            <mxPoint x="1410" y="1310" as="sourcePoint" />
            <mxPoint x="1572" y="1310" as="targetPoint" />
          </mxGeometry>
        </mxCell>
        <mxCell id="ekEnLBvmO1qP7LXFrtnK-1555" value="" style="edgeStyle=none;endArrow=none;strokeWidth=3;strokeColor=#F5AF58;html=1;entryX=0.5;entryY=0;entryDx=0;entryDy=0;" edge="1" parent="1" source="1355" target="ekEnLBvmO1qP7LXFrtnK-1552">
          <mxGeometry x="243.5" y="39" width="100" height="100" as="geometry">
            <mxPoint x="1290" y="1320" as="sourcePoint" />
            <mxPoint x="1452" y="1320" as="targetPoint" />
          </mxGeometry>
        </mxCell>
        <mxCell id="ekEnLBvmO1qP7LXFrtnK-1556" value="Утечка данных&lt;br&gt;[критический]" style="ellipse;whiteSpace=wrap;html=1;gradientColor=none;fillColor=light-dark(#F08705,#A55146);strokeColor=none;" vertex="1" parent="1">
          <mxGeometry x="540" y="1030" width="120" height="80" as="geometry" />
        </mxCell>
        <mxCell id="ekEnLBvmO1qP7LXFrtnK-1557" value="Потеря данных&lt;br&gt;[значительный]" style="ellipse;whiteSpace=wrap;html=1;gradientColor=none;fillColor=light-dark(#F08705,#A55146);strokeColor=none;" vertex="1" parent="1">
          <mxGeometry x="690" y="1070" width="120" height="80" as="geometry" />
        </mxCell>
        <mxCell id="ekEnLBvmO1qP7LXFrtnK-1558" value="" style="edgeStyle=none;endArrow=none;strokeWidth=3;strokeColor=#F08E81;html=1;exitX=0.5;exitY=1;exitDx=0;exitDy=0;entryX=0.5;entryY=0;entryDx=0;entryDy=0;" edge="1" parent="1" source="1356" target="ekEnLBvmO1qP7LXFrtnK-1556">
          <mxGeometry x="188.5" y="51.5" width="100" height="100" as="geometry">
            <mxPoint x="671" y="980" as="sourcePoint" />
            <mxPoint x="777" y="1003" as="targetPoint" />
          </mxGeometry>
        </mxCell>
        <mxCell id="ekEnLBvmO1qP7LXFrtnK-1559" value="" style="edgeStyle=none;endArrow=none;strokeWidth=3;strokeColor=#F08E81;html=1;entryX=0.5;entryY=0;entryDx=0;entryDy=0;" edge="1" parent="1" source="1356" target="ekEnLBvmO1qP7LXFrtnK-1557">
          <mxGeometry x="188.5" y="51.5" width="100" height="100" as="geometry">
            <mxPoint x="690" y="970" as="sourcePoint" />
            <mxPoint x="796" y="993" as="targetPoint" />
          </mxGeometry>
        </mxCell>
        <mxCell id="ekEnLBvmO1qP7LXFrtnK-1560" value="Потеря данных&lt;br&gt;[незначительный]" style="ellipse;whiteSpace=wrap;html=1;gradientColor=none;fillColor=light-dark(#F08705,#736CA8);strokeColor=none;" vertex="1" parent="1">
          <mxGeometry x="453" y="430" width="120" height="80" as="geometry" />
        </mxCell>
        <mxCell id="ekEnLBvmO1qP7LXFrtnK-1561" value="" style="edgeStyle=none;endArrow=none;strokeWidth=3;strokeColor=#A29DC5;html=1;exitX=0;exitY=0.667;exitDx=0;exitDy=0;exitPerimeter=0;entryX=0.998;entryY=0.397;entryDx=0;entryDy=0;entryPerimeter=0;" edge="1" parent="1" source="1516" target="ekEnLBvmO1qP7LXFrtnK-1560">
          <mxGeometry x="-1498" y="-303.5" width="100" height="100" as="geometry">
            <mxPoint x="800" y="478" as="sourcePoint" />
            <mxPoint x="674" y="430" as="targetPoint" />
          </mxGeometry>
        </mxCell>
        <mxCell id="ekEnLBvmO1qP7LXFrtnK-1562" value="Искажение данных&lt;br&gt;[незначительный]" style="ellipse;whiteSpace=wrap;html=1;gradientColor=none;fillColor=light-dark(#F08705,#736CA8);strokeColor=none;" vertex="1" parent="1">
          <mxGeometry x="530" y="530" width="120" height="80" as="geometry" />
        </mxCell>
        <mxCell id="ekEnLBvmO1qP7LXFrtnK-1563" value="" style="edgeStyle=none;endArrow=none;strokeWidth=3;strokeColor=#A29DC5;html=1;exitX=0;exitY=1;exitDx=0;exitDy=0;entryX=0.92;entryY=0.207;entryDx=0;entryDy=0;entryPerimeter=0;" edge="1" parent="1" source="1516" target="ekEnLBvmO1qP7LXFrtnK-1562">
          <mxGeometry x="-1498" y="-303.5" width="100" height="100" as="geometry">
            <mxPoint x="887" y="480" as="sourcePoint" />
            <mxPoint x="630" y="522" as="targetPoint" />
          </mxGeometry>
        </mxCell>
        <mxCell id="ekEnLBvmO1qP7LXFrtnK-1564" value="Искажение данных&lt;div&gt;[критический]&lt;/div&gt;" style="ellipse;whiteSpace=wrap;html=1;gradientColor=none;fillColor=light-dark(#F08705,#A55146);strokeColor=none;" vertex="1" parent="1">
          <mxGeometry x="370" y="1000" width="120" height="80" as="geometry" />
        </mxCell>
        <mxCell id="ekEnLBvmO1qP7LXFrtnK-1565" value="" style="edgeStyle=none;endArrow=none;strokeWidth=3;strokeColor=#F08E81;html=1;exitX=0;exitY=1;exitDx=0;exitDy=0;entryX=0.5;entryY=0;entryDx=0;entryDy=0;" edge="1" parent="1" source="1356" target="ekEnLBvmO1qP7LXFrtnK-1564">
          <mxGeometry x="188.5" y="51.5" width="100" height="100" as="geometry">
            <mxPoint x="545" y="870" as="sourcePoint" />
            <mxPoint x="520" y="990" as="targetPoint" />
          </mxGeometry>
        </mxCell>
        <mxCell id="ekEnLBvmO1qP7LXFrtnK-1566" value="Искажение данных&lt;br&gt;[критический]" style="ellipse;whiteSpace=wrap;html=1;gradientColor=none;fillColor=light-dark(#F08705,#BD6300);strokeColor=none;" vertex="1" parent="1">
          <mxGeometry x="1179.5" y="1350" width="120" height="80" as="geometry" />
        </mxCell>
        <mxCell id="ekEnLBvmO1qP7LXFrtnK-1567" value="" style="edgeStyle=none;endArrow=none;strokeWidth=3;strokeColor=#F5AF58;html=1;entryX=0.5;entryY=0;entryDx=0;entryDy=0;exitX=0;exitY=1;exitDx=0;exitDy=0;" edge="1" parent="1" source="1355" target="ekEnLBvmO1qP7LXFrtnK-1566">
          <mxGeometry x="243.5" y="39" width="100" height="100" as="geometry">
            <mxPoint x="1288" y="1209" as="sourcePoint" />
            <mxPoint x="1280" y="1340" as="targetPoint" />
          </mxGeometry>
        </mxCell>
        <mxCell id="ekEnLBvmO1qP7LXFrtnK-1568" value="Искажение данных&lt;br&gt;[критический]" style="ellipse;whiteSpace=wrap;html=1;gradientColor=none;fillColor=light-dark(#FFFFFF,#635F81);strokeColor=none;" vertex="1" parent="1">
          <mxGeometry x="1920" y="610" width="120" height="80" as="geometry" />
        </mxCell>
        <mxCell id="ekEnLBvmO1qP7LXFrtnK-1569" value="" style="edgeStyle=none;endArrow=none;strokeWidth=3;strokeColor=#A29DC5;html=1;" edge="1" parent="1" source="1354" target="ekEnLBvmO1qP7LXFrtnK-1568">
          <mxGeometry x="251" y="-103.5" width="100" height="100" as="geometry">
            <mxPoint x="1480" y="667" as="sourcePoint" />
            <mxPoint x="1550" y="787" as="targetPoint" />
          </mxGeometry>
        </mxCell>
        <mxCell id="ekEnLBvmO1qP7LXFrtnK-1570" value="Некачественные данные&lt;br&gt;[значительный]" style="ellipse;whiteSpace=wrap;html=1;gradientColor=none;fillColor=light-dark(#F08705,#BD6300);strokeColor=none;" vertex="1" parent="1">
          <mxGeometry x="1030" y="1320" width="120" height="80" as="geometry" />
        </mxCell>
        <mxCell id="ekEnLBvmO1qP7LXFrtnK-1571" value="" style="edgeStyle=none;endArrow=none;strokeWidth=3;strokeColor=#F5AF58;html=1;entryX=0.5;entryY=0;entryDx=0;entryDy=0;exitX=0.002;exitY=0.574;exitDx=0;exitDy=0;exitPerimeter=0;" edge="1" parent="1" source="1355" target="ekEnLBvmO1qP7LXFrtnK-1570">
          <mxGeometry x="243.5" y="39" width="100" height="100" as="geometry">
            <mxPoint x="1284.5" y="1170" as="sourcePoint" />
            <mxPoint x="1194.5" y="1292" as="targetPoint" />
          </mxGeometry>
        </mxCell>
        <mxCell id="ekEnLBvmO1qP7LXFrtnK-1572" value="Обесценивание данных&lt;br&gt;[значительный]" style="ellipse;whiteSpace=wrap;html=1;gradientColor=none;fillColor=light-dark(#F08705,#BD6300);strokeColor=none;" vertex="1" parent="1">
          <mxGeometry x="903.5" y="1241" width="120" height="80" as="geometry" />
        </mxCell>
        <mxCell id="ekEnLBvmO1qP7LXFrtnK-1573" value="" style="edgeStyle=none;endArrow=none;strokeWidth=3;strokeColor=#F5AF58;html=1;entryX=1;entryY=0;entryDx=0;entryDy=0;exitX=-0.009;exitY=0.434;exitDx=0;exitDy=0;exitPerimeter=0;" edge="1" parent="1" source="1355" target="ekEnLBvmO1qP7LXFrtnK-1572">
          <mxGeometry x="243.5" y="39" width="100" height="100" as="geometry">
            <mxPoint x="1280" y="1110" as="sourcePoint" />
            <mxPoint x="1070" y="1260" as="targetPoint" />
          </mxGeometry>
        </mxCell>
        <mxCell id="ekEnLBvmO1qP7LXFrtnK-1576" value="Приведет к незначительным репутационные рискам и жалобам от собственников. Незначительные затраты на устранение проблемы." style="text;html=1;align=center;verticalAlign=middle;whiteSpace=wrap;rounded=0;" vertex="1" parent="1">
          <mxGeometry x="110" y="550" width="240" height="80" as="geometry" />
        </mxCell>
        <mxCell id="ekEnLBvmO1qP7LXFrtnK-1577" value="" style="edgeStyle=none;endArrow=none;strokeWidth=3;strokeColor=#A29DC5;html=1;entryX=1;entryY=0.5;entryDx=0;entryDy=0;" edge="1" parent="1" source="ekEnLBvmO1qP7LXFrtnK-1560" target="ekEnLBvmO1qP7LXFrtnK-1576">
          <mxGeometry x="-1498" y="-303.5" width="100" height="100" as="geometry">
            <mxPoint x="428.5" y="410" as="sourcePoint" />
            <mxPoint x="171.5" y="452" as="targetPoint" />
          </mxGeometry>
        </mxCell>
        <mxCell id="ekEnLBvmO1qP7LXFrtnK-1578" value="" style="edgeStyle=none;endArrow=none;strokeWidth=3;strokeColor=#A29DC5;html=1;exitX=0;exitY=0.667;exitDx=0;exitDy=0;exitPerimeter=0;entryX=1;entryY=0.5;entryDx=0;entryDy=0;" edge="1" parent="1" target="ekEnLBvmO1qP7LXFrtnK-1576">
          <mxGeometry x="-1498" y="-303.5" width="100" height="100" as="geometry">
            <mxPoint x="530" y="580" as="sourcePoint" />
            <mxPoint x="340" y="490" as="targetPoint" />
          </mxGeometry>
        </mxCell>
        <mxCell id="ekEnLBvmO1qP7LXFrtnK-1579" value="&amp;nbsp;" style="text;html=1;align=center;verticalAlign=middle;whiteSpace=wrap;rounded=0;" vertex="1" parent="1">
          <mxGeometry x="130" y="1130" width="60" height="30" as="geometry" />
        </mxCell>
        <mxCell id="ekEnLBvmO1qP7LXFrtnK-1580" value="" style="edgeStyle=none;endArrow=none;strokeWidth=3;strokeColor=#F08E81;html=1;exitX=0;exitY=1;exitDx=0;exitDy=0;entryX=0.5;entryY=0;entryDx=0;entryDy=0;" edge="1" parent="1" target="ekEnLBvmO1qP7LXFrtnK-1583">
          <mxGeometry x="188.5" y="51.5" width="100" height="100" as="geometry">
            <mxPoint x="413" y="1070" as="sourcePoint" />
            <mxPoint x="380" y="1240" as="targetPoint" />
          </mxGeometry>
        </mxCell>
        <mxCell id="ekEnLBvmO1qP7LXFrtnK-1581" value="" style="edgeStyle=none;endArrow=none;strokeWidth=3;strokeColor=#F08E81;html=1;exitX=0.5;exitY=1;exitDx=0;exitDy=0;entryX=0.529;entryY=0.02;entryDx=0;entryDy=0;entryPerimeter=0;" edge="1" parent="1" target="ekEnLBvmO1qP7LXFrtnK-1585">
          <mxGeometry x="188.5" y="51.5" width="100" height="100" as="geometry">
            <mxPoint x="585" y="1100" as="sourcePoint" />
            <mxPoint x="420" y="1340" as="targetPoint" />
          </mxGeometry>
        </mxCell>
        <mxCell id="ekEnLBvmO1qP7LXFrtnK-1582" value="" style="edgeStyle=none;endArrow=none;strokeWidth=3;strokeColor=#F08E81;html=1;exitX=0.5;exitY=1;exitDx=0;exitDy=0;entryX=0.5;entryY=0;entryDx=0;entryDy=0;" edge="1" parent="1" target="ekEnLBvmO1qP7LXFrtnK-1586">
          <mxGeometry x="188.5" y="51.5" width="100" height="100" as="geometry">
            <mxPoint x="740" y="1150" as="sourcePoint" />
            <mxPoint x="600.9756097560976" y="1340" as="targetPoint" />
          </mxGeometry>
        </mxCell>
        <mxCell id="ekEnLBvmO1qP7LXFrtnK-1583" value="На данный момент существует проблема API и доступами данных. Искажение данных трудно выявить и недостоверная информация несет репутационные и финансовые убытки. Проблемы с учетом недвижимости.&amp;nbsp;" style="text;html=1;align=center;verticalAlign=middle;whiteSpace=wrap;rounded=0;" vertex="1" parent="1">
          <mxGeometry x="110" y="1220" width="260" height="100" as="geometry" />
        </mxCell>
        <mxCell id="ekEnLBvmO1qP7LXFrtnK-1585" value="На данный момент сущуствует проблема с доступами к данным. Утечка информации несет для компании репутационные и финансовые убытки, угроза процессам и раскрытие внутренней структуры." style="text;html=1;align=center;verticalAlign=middle;whiteSpace=wrap;rounded=0;" vertex="1" parent="1">
          <mxGeometry x="250" y="1350" width="250" height="70" as="geometry" />
        </mxCell>
        <mxCell id="ekEnLBvmO1qP7LXFrtnK-1586" value="На данный момент сущуствует проблема с доступами к данным. Но имеется возможность восстановить данные из резервных копий. Издержки на восстановление. Отсутствует&amp;nbsp;&lt;span style=&quot;background-color: rgb(31, 31, 31); color: rgb(204, 204, 204); font-family: &amp;quot;Droid Sans Mono&amp;quot;, &amp;quot;monospace&amp;quot;, monospace; font-size: 14px; white-space: pre;&quot;&gt;MTTR&lt;/span&gt;" style="text;html=1;align=center;verticalAlign=middle;whiteSpace=wrap;rounded=0;" vertex="1" parent="1">
          <mxGeometry x="451" y="1430" width="267" height="55" as="geometry" />
        </mxCell>
        <mxCell id="ekEnLBvmO1qP7LXFrtnK-1587" value="&lt;br&gt;Аналогично с внутренними данными.&amp;nbsp;&lt;br&gt;Угроза в некорректном планировании и принятии решений" style="text;html=1;align=center;verticalAlign=middle;whiteSpace=wrap;rounded=0;" vertex="1" parent="1">
          <mxGeometry x="730" y="1460" width="170" height="80" as="geometry" />
        </mxCell>
        <mxCell id="ekEnLBvmO1qP7LXFrtnK-1588" value="" style="edgeStyle=none;endArrow=none;strokeWidth=3;strokeColor=#F5AF58;html=1;entryX=0.5;entryY=0;entryDx=0;entryDy=0;exitX=0;exitY=1;exitDx=0;exitDy=0;" edge="1" parent="1" source="ekEnLBvmO1qP7LXFrtnK-1572" target="ekEnLBvmO1qP7LXFrtnK-1587">
          <mxGeometry x="243.5" y="39" width="100" height="100" as="geometry">
            <mxPoint x="1002" y="1440" as="sourcePoint" />
            <mxPoint x="710" y="1552" as="targetPoint" />
          </mxGeometry>
        </mxCell>
        <mxCell id="ekEnLBvmO1qP7LXFrtnK-1589" value="Аналогично с внутренними данными.&amp;nbsp;&lt;br&gt;Угроза некорректной работе с собственниками. Недостоверность отчетов." style="text;html=1;align=center;verticalAlign=middle;whiteSpace=wrap;rounded=0;" vertex="1" parent="1">
          <mxGeometry x="903.5" y="1510" width="210" height="80" as="geometry" />
        </mxCell>
        <mxCell id="ekEnLBvmO1qP7LXFrtnK-1590" value="" style="edgeStyle=none;endArrow=none;strokeWidth=3;strokeColor=#F5AF58;html=1;entryX=0.5;entryY=0;entryDx=0;entryDy=0;exitX=0.002;exitY=0.574;exitDx=0;exitDy=0;exitPerimeter=0;" edge="1" parent="1" target="ekEnLBvmO1qP7LXFrtnK-1589">
          <mxGeometry x="243.5" y="39" width="100" height="100" as="geometry">
            <mxPoint x="1080" y="1400" as="sourcePoint" />
            <mxPoint x="870" y="1550" as="targetPoint" />
          </mxGeometry>
        </mxCell>
        <mxCell id="ekEnLBvmO1qP7LXFrtnK-1591" value="&lt;br&gt;Аналогично с внутренними данными.&amp;nbsp;&lt;br&gt;Юридические, репутационные и финансовые риски" style="text;html=1;align=center;verticalAlign=middle;whiteSpace=wrap;rounded=0;" vertex="1" parent="1">
          <mxGeometry x="1100" y="1560" width="210" height="80" as="geometry" />
        </mxCell>
        <mxCell id="ekEnLBvmO1qP7LXFrtnK-1592" value="" style="edgeStyle=none;endArrow=none;strokeWidth=3;strokeColor=#F5AF58;html=1;entryX=0.5;entryY=0;entryDx=0;entryDy=0;exitX=0.38;exitY=1.004;exitDx=0;exitDy=0;exitPerimeter=0;" edge="1" parent="1" source="ekEnLBvmO1qP7LXFrtnK-1566" target="ekEnLBvmO1qP7LXFrtnK-1591">
          <mxGeometry x="243.5" y="39" width="100" height="100" as="geometry">
            <mxPoint x="1220" y="1460" as="sourcePoint" />
            <mxPoint x="1130" y="1582" as="targetPoint" />
          </mxGeometry>
        </mxCell>
        <mxCell id="ekEnLBvmO1qP7LXFrtnK-1593" value="&lt;br&gt;Аналогично с внутренними данными.&amp;nbsp;" style="text;html=1;align=center;verticalAlign=middle;whiteSpace=wrap;rounded=0;" vertex="1" parent="1">
          <mxGeometry x="1328.5" y="1570" width="180" height="50" as="geometry" />
        </mxCell>
        <mxCell id="ekEnLBvmO1qP7LXFrtnK-1594" value="" style="edgeStyle=none;endArrow=none;strokeWidth=3;strokeColor=#F5AF58;html=1;entryX=0.5;entryY=0;entryDx=0;entryDy=0;" edge="1" parent="1" target="ekEnLBvmO1qP7LXFrtnK-1593">
          <mxGeometry x="243.5" y="39" width="100" height="100" as="geometry">
            <mxPoint x="1388" y="1470" as="sourcePoint" />
            <mxPoint x="1380" y="1601" as="targetPoint" />
          </mxGeometry>
        </mxCell>
        <mxCell id="ekEnLBvmO1qP7LXFrtnK-1595" value="&lt;br&gt;Аналогично с внутренними данными. Серьезные юридические и репутационные последствия" style="text;html=1;align=center;verticalAlign=middle;whiteSpace=wrap;rounded=0;" vertex="1" parent="1">
          <mxGeometry x="1540" y="1490" width="230" height="90" as="geometry" />
        </mxCell>
        <mxCell id="ekEnLBvmO1qP7LXFrtnK-1597" value="" style="edgeStyle=none;endArrow=none;strokeWidth=3;strokeColor=#F5AF58;html=1;exitX=0.647;exitY=0.981;exitDx=0;exitDy=0;exitPerimeter=0;entryX=0.5;entryY=0;entryDx=0;entryDy=0;" edge="1" parent="1" target="ekEnLBvmO1qP7LXFrtnK-1595">
          <mxGeometry x="243.5" y="39" width="100" height="100" as="geometry">
            <mxPoint x="1547.5" y="1415" as="sourcePoint" />
            <mxPoint x="1652.5" y="1500" as="targetPoint" />
          </mxGeometry>
        </mxCell>
        <mxCell id="ekEnLBvmO1qP7LXFrtnK-1598" value="&lt;br&gt;Аналогично с внутренними данными. Налоговые последствия и финансовые" style="text;html=1;align=center;verticalAlign=middle;whiteSpace=wrap;rounded=0;" vertex="1" parent="1">
          <mxGeometry x="2170" y="640" width="180" height="50" as="geometry" />
        </mxCell>
        <mxCell id="ekEnLBvmO1qP7LXFrtnK-1599" value="" style="edgeStyle=none;endArrow=none;strokeWidth=3;strokeColor=#A29DC5;html=1;entryX=0;entryY=0.5;entryDx=0;entryDy=0;exitX=1;exitY=0.5;exitDx=0;exitDy=0;" edge="1" parent="1" source="ekEnLBvmO1qP7LXFrtnK-1568" target="ekEnLBvmO1qP7LXFrtnK-1598">
          <mxGeometry x="251" y="-103.5" width="100" height="100" as="geometry">
            <mxPoint x="2090" y="827" as="sourcePoint" />
            <mxPoint x="2410" y="810" as="targetPoint" />
          </mxGeometry>
        </mxCell>
        <mxCell id="ekEnLBvmO1qP7LXFrtnK-1600" value="&lt;br&gt;Аналогично с внутренними данными. Раскрытие стратегических финансовых планов, проблемы с партнерами" style="text;html=1;align=center;verticalAlign=middle;whiteSpace=wrap;rounded=0;" vertex="1" parent="1">
          <mxGeometry x="2090" y="770" width="220" height="80" as="geometry" />
        </mxCell>
        <mxCell id="ekEnLBvmO1qP7LXFrtnK-1602" value="" style="edgeStyle=none;endArrow=none;strokeWidth=3;strokeColor=#A29DC5;html=1;entryX=0.5;entryY=0;entryDx=0;entryDy=0;exitX=1.019;exitY=0.623;exitDx=0;exitDy=0;exitPerimeter=0;" edge="1" parent="1" source="ekEnLBvmO1qP7LXFrtnK-1545" target="ekEnLBvmO1qP7LXFrtnK-1600">
          <mxGeometry x="251" y="-103.5" width="100" height="100" as="geometry">
            <mxPoint x="2050" y="865" as="sourcePoint" />
            <mxPoint x="2180" y="880" as="targetPoint" />
          </mxGeometry>
        </mxCell>
        <mxCell id="ekEnLBvmO1qP7LXFrtnK-1603" value="&lt;br&gt;Аналогично с внутренними данными. Сбои с финансовыми операциями, проблема с аудитом." style="text;html=1;align=center;verticalAlign=middle;whiteSpace=wrap;rounded=0;" vertex="1" parent="1">
          <mxGeometry x="1970" y="900" width="180" height="50" as="geometry" />
        </mxCell>
        <mxCell id="ekEnLBvmO1qP7LXFrtnK-1604" value="" style="edgeStyle=none;endArrow=none;strokeWidth=3;strokeColor=#A29DC5;html=1;entryX=0.5;entryY=0;entryDx=0;entryDy=0;" edge="1" parent="1" source="ekEnLBvmO1qP7LXFrtnK-1546" target="ekEnLBvmO1qP7LXFrtnK-1603">
          <mxGeometry x="251" y="-103.5" width="100" height="100" as="geometry">
            <mxPoint x="1901" y="930" as="sourcePoint" />
            <mxPoint x="2142" y="1040" as="targetPoint" />
          </mxGeometry>
        </mxCell>
      </root>
    </mxGraphModel>
  </diagram>
</mxfile>
